HIERARCHY
ROOT Hips
{
	OFFSET 55.310501 45.591206 43.872097
	CHANNELS 6 Xposition Yposition Zposition Zrotation Xrotation Yrotation
	JOINT Chest
	{
		OFFSET -0.153500 1.163101 7.852402
		CHANNELS 6 Xposition Yposition Zposition Zrotation Xrotation Yrotation
		JOINT Chest2
		{
			OFFSET 0.000000 0.000000 3.343300
			CHANNELS 6 Xposition Yposition Zposition Zrotation Xrotation Yrotation
			JOINT Neck
			{
				OFFSET 0.000000 0.000000 7.785500
				CHANNELS 6 Xposition Yposition Zposition Zrotation Xrotation Yrotation
				JOINT Head
				{
					OFFSET 0.000000 0.000000 2.173901
					CHANNELS 6 Xposition Yposition Zposition Zrotation Xrotation Yrotation
					End Site
					{
						OFFSET 0.000000 0.000000 10.528198
					}
				}
			}
			JOINT LeftCollar
			{
				OFFSET 2.676300 -1.652401 4.938301
				CHANNELS 6 Xposition Yposition Zposition Zrotation Xrotation Yrotation
				JOINT LeftShoulder
				{
					OFFSET 4.299000 0.000000 0.000000
					CHANNELS 6 Xposition Yposition Zposition Zrotation Xrotation Yrotation
					JOINT LeftElbow
					{
						OFFSET 0.000000 0.000000 -10.245102
						CHANNELS 6 Xposition Yposition Zposition Zrotation Xrotation Yrotation
						JOINT LeftWrist
						{
							OFFSET 0.000000 0.000000 -12.703300
							CHANNELS 6 Xposition Yposition Zposition Zrotation Xrotation Yrotation
							End Site
							{
								OFFSET 0.000000 0.000000 -2.173901
							}
						}
					}
				}
			}
			JOINT RightCollar
			{
				OFFSET -2.534599 -1.686401 5.195000
				CHANNELS 6 Xposition Yposition Zposition Zrotation Xrotation Yrotation
				JOINT RightShoulder
				{
					OFFSET -4.144100 0.000000 0.000000
					CHANNELS 6 Xposition Yposition Zposition Zrotation Xrotation Yrotation
					JOINT RightElbow
					{
						OFFSET 0.000000 0.000000 -10.116501
						CHANNELS 6 Xposition Yposition Zposition Zrotation Xrotation Yrotation
						JOINT RightWrist
						{
							OFFSET 0.000000 0.000000 -12.937801
							CHANNELS 6 Xposition Yposition Zposition Zrotation Xrotation Yrotation
							End Site
							{
								OFFSET 0.000000 0.000000 -2.173901
							}
						}
					}
				}
			}
		}
	}
	JOINT LeftHip
	{
		OFFSET 2.175598 0.064499 -2.662899
		CHANNELS 6 Xposition Yposition Zposition Zrotation Xrotation Yrotation
		JOINT LeftKnee
		{
			OFFSET 0.000000 -0.000004 -18.585800
			CHANNELS 6 Xposition Yposition Zposition Zrotation Xrotation Yrotation
			JOINT LeftAnkle
			{
				OFFSET 0.000000 0.000000 -18.979500
				CHANNELS 6 Xposition Yposition Zposition Zrotation Xrotation Yrotation
				End Site
				{
					OFFSET 0.000000 -9.264000 0.000000
				}
			}
		}
	}
	JOINT RightHip
	{
		OFFSET -2.092400 -0.058102 -2.581200
		CHANNELS 6 Xposition Yposition Zposition Zrotation Xrotation Yrotation
		JOINT RightKnee
		{
			OFFSET 0.000000 -0.000004 -18.665001
			CHANNELS 6 Xposition Yposition Zposition Zrotation Xrotation Yrotation
			JOINT RightAnkle
			{
				OFFSET 0.000000 0.000000 -18.566601
				CHANNELS 6 Xposition Yposition Zposition Zrotation Xrotation Yrotation
				End Site
				{
					OFFSET 0.000000 -8.497601 0.000000
				}
			}
		}
	}
}
MOTION
Frames: 7
Frame Time: 0.041667
67.109093 -27.125698 44.564499 3083.129032 -6.088233 7.805051 -0.153492 1.163103 7.852408 -23.302935 -4.214686 -5.930857 -0.000004 0.000004 3.343307 22.101686 -1.129956 2.817703 -0.000005 -0.000001 7.785503 -19.751386 -17.331596 6.881896 0.000010 -0.000001 2.173911 -8.315232 -12.334381 -5.957017 2.676296 -1.652399 4.938310 11.425204 -2.366851 -0.376180 4.298999 0.000002 -0.000005 -408.524515 -7.512838 239.849114 -0.000011 0.000006 -10.245108 -49.247563 732.791653 281.103375 0.000008 0.000010 -12.703301 1229.449787 -174.138077 552.422859 -2.534594 -1.686399 5.195003 6.238374 13.745343 35.327996 -4.144107 0.000006 -0.000006 183.726297 144.081119 -116.528355 0.000006 0.000000 -10.116504 -379.766687 -6.495649 -279.606798 0.000014 0.000000 -12.937805 -1096.121107 7.421405 0.557090 2.175606 0.064491 -2.662890 -1024.999604 -33.654319 -2.307770 -0.000008 -0.000005 -18.585804 518.157603 -210.540936 -190.793070 -0.000003 -0.000004 -18.979502 660.391812 19.805914 -721.721337 -2.092389 -0.058114 -2.581198 1475.816459 26.468675 0.683535 -0.000007 -0.000006 -18.665005 -1122.699285 23.989332 -1099.214909 -0.000008 0.000003 -18.566603 687.640496 -4.262023 -78.965367
67.076996 -27.154392 44.537197 3082.586114 -6.160646 7.801549 -0.153499 1.163113 7.852399 -22.781835 -4.322979 -5.902244 0.000008 0.000005 3.343308 22.078708 -1.096443 2.829994 0.000007 0.000006 7.785505 -20.019962 -17.408827 6.881925 0.000000 0.000007 2.173911 -8.234079 -12.309352 -6.051022 2.676293 -1.652396 4.938303 11.272874 -2.189821 -0.409988 4.299004 -0.000002 0.000000 -408.371683 -7.677573 239.737290 0.000011 0.000000 -10.245111 -49.262804 732.863069 281.057449 -0.000006 0.000006 -12.703294 1229.506833 -174.136533 552.408215 -2.534593 -1.686397 5.195004 6.457708 13.868728 35.129883 -4.144096 -0.000001 -0.000002 183.451136 144.079262 -116.423470 0.000009 -0.000004 -10.116495 -379.738656 -6.447823 -279.678160 0.000005 0.000003 -12.937805 -1096.102420 7.328340 0.486645 2.175594 0.064508 -2.662908 -1023.537725 -33.885958 -1.733083 -0.000004 -0.000006 -18.585796 518.627411 -210.450737 -191.398867 -0.000003 0.000002 -18.979500 658.426794 19.329148 -720.080835 -2.092393 -0.058094 -2.581209 1476.251078 26.482713 0.774353 -0.000001 -0.000011 -18.665001 -1122.700925 24.056160 -1099.247585 -0.000002 0.000003 -18.566601 687.812453 -4.276941 -78.891328
67.042297 -27.178196 44.507999 3082.520544 -6.196843 7.851195 -0.153498 1.163098 7.852407 -22.732319 -4.393386 -5.887442 -0.000009 0.000001 3.343296 22.000939 -1.060191 2.809899 0.000005 0.000003 7.785502 -20.180082 -17.532703 6.941768 -0.000004 -0.000002 2.173909 -8.166166 -12.285121 -6.147584 2.676293 -1.652396 4.938302 11.427018 -2.424370 -0.362316 4.299001 0.000006 -0.000008 -408.401053 -7.460675 239.950720 0.000002 0.000004 -10.245108 -49.185145 732.948365 281.026385 0.000001 0.000007 -12.703300 1229.551858 -174.141287 552.391768 -2.534589 -1.686399 5.195000 6.468433 13.973254 35.194196 -4.144110 0.000008 -0.000006 183.563219 144.103878 -116.495952 -0.000001 0.000005 -10.116501 -379.819990 -6.457087 -279.765095 -0.000003 0.000000 -12.937807 -1096.077831 7.491553 0.601938 2.175602 0.064487 -2.662897 -1021.760018 -34.220651 -0.757828 -0.000004 0.000001 -18.585800 518.300217 -210.570798 -191.782819 -0.000008 0.000006 -18.979498 656.815525 18.996392 -718.967186 -2.092386 -0.058108 -2.581197 1476.532591 26.582335 0.685359 -0.000010 0.000003 -18.665003 -1122.886706 23.994478 -1099.354355 -0.000026 -0.000005 -18.566601 687.891574 -4.272365 -78.792325
67.011391 -27.203388 44.476498 3082.545679 -6.229331 7.928046 -0.153502 1.163106 7.852397 -22.770939 -4.395152 -5.863620 -0.000002 0.000003 3.343300 21.953550 -1.053985 2.823260 0.000002 0.000005 7.785503 -20.798423 -17.670130 7.174617 -0.000004 0.000007 2.173895 -7.865025 -12.254930 -6.375696 2.676292 -1.652399 4.938300 11.478083 -2.391124 0.042805 4.299002 0.000002 -0.000004 -408.345701 -7.075679 239.662158 0.000011 0.000002 -10.245106 -49.009380 733.090050 280.989556 0.000000 0.000013 -12.703302 1229.692177 -174.137736 552.363299 -2.534598 -1.686401 5.194999 6.568009 13.893460 35.099826 -4.144112 0.000008 -0.000002 183.592138 143.902032 -116.430437 0.000000 -0.000008 -10.116497 -379.956593 -6.471924 -279.900059 0.000003 0.000004 -12.937807 -1096.134440 7.600822 0.836830 2.175592 0.064495 -2.662897 -1019.972038 -34.573663 0.301039 -0.000007 0.000005 -18.585800 518.651835 -210.540486 -192.487558 -0.000000 -0.000001 -18.979502 653.918596 17.631483 -713.697395 -2.092395 -0.058102 -2.581204 1476.501664 26.621699 0.682820 -0.000002 -0.000009 -18.665001 -1122.960909 24.021610 -1099.378725 -0.000000 -0.000004 -18.566597 688.063367 -4.261539 -78.662551
66.985397 -27.227993 44.447201 3082.526008 -6.238339 8.009781 -0.153495 1.163102 7.852407 -22.779292 -4.472224 -5.826390 -0.000005 0.000007 3.343302 21.939228 -1.120068 2.826487 0.000003 -0.000005 7.785504 -21.260303 -17.724916 7.321000 0.000006 -0.000001 2.173904 -7.651425 -12.233746 -6.540625 2.676296 -1.652400 4.938302 11.455609 -2.270312 0.137571 4.298996 0.000004 -0.000005 -408.387502 -7.115561 239.463372 0.000001 0.000006 -10.245093 -49.161154 733.064369 280.973383 -0.000001 0.000003 -12.703301 1229.697095 -174.144183 552.365321 -2.534600 -1.686404 5.195003 6.942731 14.400692 34.713801 -4.144102 0.000007 0.000000 182.989920 143.922741 -116.182146 0.000000 -0.000005 -10.116505 -380.116502 -6.454373 -279.989125 0.000010 0.000000 -12.937805 -1096.215746 7.562148 0.973787 2.175606 0.064484 -2.662896 -1018.121221 -34.938760 1.422640 -0.000006 -0.000006 -18.585796 518.238964 -210.779214 -192.934826 -0.000004 0.000003 -18.979496 652.507642 17.574290 -713.805038 -2.092378 -0.058110 -2.581197 1476.309544 26.575590 0.775303 -0.000005 -0.000006 -18.665001 -1122.917961 24.120007 -1099.328236 0.000004 -0.000010 -18.566597 688.278764 -4.248731 -78.532081
66.961594 -27.247204 44.409695 3082.484043 -6.229194 8.119917 -0.153487 1.163109 7.852409 -22.771321 -4.597944 -5.858556 -0.000003 0.000007 3.343308 21.982733 -1.088221 2.842657 -0.000009 0.000001 7.785505 -21.643281 -17.731222 7.446894 0.000000 0.000007 2.173911 -7.505473 -12.214874 -6.710484 2.676286 -1.652396 4.938310 11.293404 -2.057104 0.217697 4.299002 -0.000002 0.000002 -408.295185 -7.290219 239.251855 -0.000002 0.000008 -10.245095 -49.273309 733.111142 280.857925 0.000003 0.000001 -12.703297 1229.775451 -174.140659 552.360622 -2.534607 -1.686401 5.195008 7.374654 14.945579 34.495812 -4.144105 0.000007 0.000004 182.168932 144.327457 -116.089460 -0.000003 -0.000004 -10.116511 -379.871926 -6.550546 -280.044805 -0.000005 -0.000002 -12.937803 -1096.194436 7.548886 1.364528 2.175602 0.064497 -2.662888 -1016.663822 -35.271080 2.307512 -0.000008 -0.000007 -18.585804 518.051762 -210.950529 -193.324953 -0.000000 0.000006 -18.979502 651.308644 17.554568 -713.899350 -2.092384 -0.058091 -2.581198 1476.335554 26.532374 0.758134 -0.000003 0.000003 -18.665009 -1122.996207 24.169797 -1099.320040 0.000004 -0.000004 -18.566595 688.452141 -4.238941 -78.395286
66.938004 -27.260586 44.383194 3082.456285 -6.288758 8.245637 -0.153493 1.163105 7.852402 -22.763228 -4.605943 -5.870821 -0.000001 0.000002 3.343303 21.997401 -1.049437 2.835604 0.000003 0.000001 7.785508 -21.888721 -17.815958 7.653198 -0.000009 0.000001 2.173910 -7.383223 -12.257075 -6.855066 2.676296 -1.652402 4.938308 11.265860 -2.132387 0.288235 4.299004 -0.000006 -0.000005 -408.207075 -7.232313 239.245134 -0.000007 0.000011 -10.245098 -49.247652 733.142288 280.778913 0.000002 0.000008 -12.703300 1229.862440 -174.129089 552.347071 -2.534592 -1.686394 5.195004 7.306139 14.862857 34.445088 -4.144113 0.000006 0.000006 182.406595 144.105954 -116.107984 0.000018 -0.000002 -10.116489 -380.081968 -6.535772 -280.134909 0.000002 0.000004 -12.937801 -1096.154438 7.738342 1.626222 2.175598 0.064503 -2.662887 -1015.770106 -35.505967 2.834720 -0.000002 -0.000003 -18.585804 517.709652 -211.233681 -193.547726 -0.000003 0.000001 -18.979500 650.872987 17.476998 -714.042183 -2.092381 -0.058100 -2.581200 1476.382545 26.526037 0.642087 -0.000002 -0.000004 -18.665005 -1123.035768 24.189223 -1099.279933 -0.000002 -0.000006 -18.566601 688.564757 -4.237254 -78.309075
